<mxfile host="app.diagrams.net" modified="2023-03-31T11:26:35.619Z" agent="Mozilla/5.0 (Macintosh; Intel Mac OS X 10_15_7) AppleWebKit/537.36 (KHTML, like Gecko) Chrome/111.0.0.0 Safari/537.36" etag="-ELXSNLmLsxXWtQI5nZA" version="21.1.2" type="github">
  <diagram name="Page-1" id="3fkFkQsPskqgZaCpoa4M">
    <mxGraphModel dx="819" dy="459" grid="1" gridSize="10" guides="1" tooltips="1" connect="1" arrows="1" fold="1" page="1" pageScale="1" pageWidth="1654" pageHeight="1169" math="0" shadow="0">
      <root>
        <mxCell id="0" />
        <mxCell id="1" parent="0" />
        <mxCell id="2M2vLyOuWYmMq2e_wi-m-1" value="Thread 1" style="swimlane;whiteSpace=wrap;html=1;" vertex="1" parent="1">
          <mxGeometry x="610" y="90" width="220" height="420" as="geometry" />
        </mxCell>
        <mxCell id="2M2vLyOuWYmMq2e_wi-m-3" value="" style="ellipse;whiteSpace=wrap;html=1;aspect=fixed;fillColor=#000000;fontColor=#ffffff;strokeColor=#000000;" vertex="1" parent="2M2vLyOuWYmMq2e_wi-m-1">
          <mxGeometry x="100" y="40" width="20" height="20" as="geometry" />
        </mxCell>
        <mxCell id="2M2vLyOuWYmMq2e_wi-m-6" value="Choose user" style="rounded=1;whiteSpace=wrap;html=1;" vertex="1" parent="2M2vLyOuWYmMq2e_wi-m-1">
          <mxGeometry x="50" y="150" width="120" height="60" as="geometry" />
        </mxCell>
        <mxCell id="2M2vLyOuWYmMq2e_wi-m-8" value="" style="endArrow=classic;html=1;rounded=0;exitX=0.5;exitY=1;exitDx=0;exitDy=0;entryX=0.5;entryY=0;entryDx=0;entryDy=0;" edge="1" parent="2M2vLyOuWYmMq2e_wi-m-1" target="2M2vLyOuWYmMq2e_wi-m-6">
          <mxGeometry width="50" height="50" relative="1" as="geometry">
            <mxPoint x="110" y="130" as="sourcePoint" />
            <mxPoint x="140" y="220" as="targetPoint" />
          </mxGeometry>
        </mxCell>
        <mxCell id="2M2vLyOuWYmMq2e_wi-m-9" value="Enter Store" style="rounded=1;whiteSpace=wrap;html=1;" vertex="1" parent="2M2vLyOuWYmMq2e_wi-m-1">
          <mxGeometry x="50" y="230" width="120" height="60" as="geometry" />
        </mxCell>
        <mxCell id="2M2vLyOuWYmMq2e_wi-m-13" value="" style="endArrow=classic;html=1;rounded=0;exitX=0.5;exitY=1;exitDx=0;exitDy=0;entryX=0.5;entryY=0;entryDx=0;entryDy=0;" edge="1" parent="2M2vLyOuWYmMq2e_wi-m-1" source="2M2vLyOuWYmMq2e_wi-m-6" target="2M2vLyOuWYmMq2e_wi-m-9">
          <mxGeometry width="50" height="50" relative="1" as="geometry">
            <mxPoint x="90" y="230" as="sourcePoint" />
            <mxPoint x="140" y="180" as="targetPoint" />
          </mxGeometry>
        </mxCell>
        <mxCell id="2M2vLyOuWYmMq2e_wi-m-19" value="load webpage" style="rounded=0;whiteSpace=wrap;html=1;" vertex="1" parent="2M2vLyOuWYmMq2e_wi-m-1">
          <mxGeometry x="50" y="70" width="120" height="60" as="geometry" />
        </mxCell>
        <mxCell id="2M2vLyOuWYmMq2e_wi-m-2" value="Thread 2" style="swimlane;whiteSpace=wrap;html=1;" vertex="1" parent="1">
          <mxGeometry x="830" y="90" width="220" height="420" as="geometry" />
        </mxCell>
        <mxCell id="2M2vLyOuWYmMq2e_wi-m-18" value="" style="ellipse;whiteSpace=wrap;html=1;aspect=fixed;strokeColor=#FF370F;" vertex="1" parent="2M2vLyOuWYmMq2e_wi-m-2">
          <mxGeometry x="75" y="380" width="30" height="30" as="geometry" />
        </mxCell>
        <mxCell id="2M2vLyOuWYmMq2e_wi-m-15" style="edgeStyle=orthogonalEdgeStyle;rounded=0;orthogonalLoop=1;jettySize=auto;html=1;exitX=0.5;exitY=1;exitDx=0;exitDy=0;entryX=0.5;entryY=0;entryDx=0;entryDy=0;" edge="1" parent="2M2vLyOuWYmMq2e_wi-m-2" source="2M2vLyOuWYmMq2e_wi-m-10" target="2M2vLyOuWYmMq2e_wi-m-11">
          <mxGeometry relative="1" as="geometry" />
        </mxCell>
        <mxCell id="2M2vLyOuWYmMq2e_wi-m-10" value="Buy Item&amp;nbsp;" style="rounded=1;whiteSpace=wrap;html=1;" vertex="1" parent="2M2vLyOuWYmMq2e_wi-m-2">
          <mxGeometry x="30" y="230" width="120" height="60" as="geometry" />
        </mxCell>
        <mxCell id="2M2vLyOuWYmMq2e_wi-m-16" style="edgeStyle=orthogonalEdgeStyle;rounded=0;orthogonalLoop=1;jettySize=auto;html=1;exitX=0.5;exitY=1;exitDx=0;exitDy=0;" edge="1" parent="2M2vLyOuWYmMq2e_wi-m-2" source="2M2vLyOuWYmMq2e_wi-m-11">
          <mxGeometry relative="1" as="geometry">
            <mxPoint x="90" y="380" as="targetPoint" />
          </mxGeometry>
        </mxCell>
        <mxCell id="2M2vLyOuWYmMq2e_wi-m-11" value="Check Inventory" style="rounded=1;whiteSpace=wrap;html=1;" vertex="1" parent="2M2vLyOuWYmMq2e_wi-m-2">
          <mxGeometry x="30" y="300" width="120" height="60" as="geometry" />
        </mxCell>
        <mxCell id="2M2vLyOuWYmMq2e_wi-m-4" value="" style="ellipse;whiteSpace=wrap;html=1;aspect=fixed;fillColor=#000000;fontColor=#ffffff;strokeColor=#000000;" vertex="1" parent="2M2vLyOuWYmMq2e_wi-m-2">
          <mxGeometry x="80" y="385" width="20" height="20" as="geometry" />
        </mxCell>
        <mxCell id="2M2vLyOuWYmMq2e_wi-m-7" value="" style="endArrow=none;html=1;rounded=0;entryX=0.5;entryY=1;entryDx=0;entryDy=0;" edge="1" parent="1" target="2M2vLyOuWYmMq2e_wi-m-3">
          <mxGeometry width="50" height="50" relative="1" as="geometry">
            <mxPoint x="720" y="160" as="sourcePoint" />
            <mxPoint x="750" y="390" as="targetPoint" />
          </mxGeometry>
        </mxCell>
        <mxCell id="2M2vLyOuWYmMq2e_wi-m-14" style="edgeStyle=orthogonalEdgeStyle;rounded=0;orthogonalLoop=1;jettySize=auto;html=1;entryX=0;entryY=0.5;entryDx=0;entryDy=0;" edge="1" parent="1" source="2M2vLyOuWYmMq2e_wi-m-9" target="2M2vLyOuWYmMq2e_wi-m-10">
          <mxGeometry relative="1" as="geometry" />
        </mxCell>
      </root>
    </mxGraphModel>
  </diagram>
</mxfile>
